<?xml version="1.0" encoding="UTF-8"?>
<svg width="557px" height="150px" viewBox="0 0 557 150" version="1.1" xmlns="http://www.w3.org/2000/svg" xmlns:xlink="http://www.w3.org/1999/xlink">
    <!-- Generator: Sketch 47.1 (45422) - http://www.bohemiancoding.com/sketch -->
    <title>Schweizer_Radio_und_Fernsehen_Logo</title>
    <desc>Created with Sketch.</desc>
    <defs></defs>
    <g id="Page-1" stroke="none" stroke-width="1" fill="none" fill-rule="evenodd">
        <g id="Schweizer_Radio_und_Fernsehen_Logo" fill-rule="nonzero" fill="#000000">
            <path d="M-1.42108547e-14,149.95225 L-2.84217094e-14,5.68434189e-14 L228.324536,5.68434189e-14 L228.324536,149.95225 L-1.42108547e-14,149.95225 Z M53.96875,38.6875 C35.73513,38.6875 26.90625,46.62612 26.90625,59.21875 C26.90625,70.6043 33.06896,77.36824 43.78125,80.125 L51.96875,82.21875 C58.71323,83.97957 61.59375,85.96137 61.59375,90.15625 C61.59375,96.35098 57.38527,97.46875 47.21875,97.46875 C42.58166,97.46875 34.51073,96.78957 31.75,96.5625 C28.873731,96.35136 28.094462,96.70288 27.65625,99.125 L26.34375,107.625 C26.116676,109.29021 26.901633,109.94113 28.34375,110.15625 C31.542702,110.59446 39.60147,111.15625 47.4375,111.15625 C65.0138,111.15625 77.84375,105.4118 77.84375,89.0625 C77.84375,79.44175 73.61575,72.25668 59.03125,68.5 L50.875,66.40625 C45.35751,64.98406 42.8125,63.20436 42.8125,59.125 C42.8125,53.37247 48.10822,52.28125 53.1875,52.28125 C60.04751,52.28125 66.98926,52.84738 69.75,53.0625 C72.63025,53.27762 73.40155,52.92611 73.84375,50.5 L75.1875,42.21875 C75.40661,40.56549 74.61767,39.9066 73.1875,39.6875 C69.9766,39.24132 62.91625,38.6875 53.96875,38.6875 Z M90.15625,39.4375 C87.94128,39.4375 87.28125,40.22254 87.28125,42.4375 L87.28125,107.53125 C87.28125,109.73028 87.94128,110.5 90.15625,110.5 L100.3125,110.5 C102.52348,110.5 103.1875,109.73028 103.1875,107.53125 L103.1875,52.59375 L113.6875,52.59375 C120.31646,52.59375 123.5,55.02402 123.5,61.21875 C123.5,66.85177 120.98311,68.61924 118.4375,69.71875 C115.23855,71.04932 114.11695,69.61761 113.125,73.8125 L112.03125,78.46875 C111.69661,79.79135 111.5625,80.42882 111.5625,80.875 C111.5625,81.97452 111.91067,82.86091 112.6875,84.1875 L125.84375,107.84375 C126.95123,109.7201 127.81956,110.5 130.46875,110.5 L142.53125,110.5 C144.07296,110.5 145.96027,109.50277 144.1875,106.75 L128.03125,80 C133.44915,76.57398 139.53125,71.72026 139.53125,61 C139.53125,47.18834 131.8038,39.4375 114.78125,39.4375 L90.15625,39.4375 Z M157.15625,39.4375 C154.94527,39.4375 154.28125,40.22253 154.28125,42.4375 L154.28125,107.53125 C154.28125,109.73426 154.94527,110.5 157.15625,110.5 L167.34375,110.5 C169.54676,110.5 170.1875,109.73426 170.1875,107.53125 L170.1875,81.875 L196.5,81.875 C198.707,81.875 199.375,81.10927 199.375,78.90625 L199.375,71.15625 C199.375,68.94527 198.707,68.1875 196.5,68.1875 L170.1875,68.1875 L170.1875,53.15625 L199.15625,53.15625 C201.36723,53.15625 202.03125,52.36723 202.03125,50.15625 L202.03125,42.4375 C202.03125,40.22253 201.36723,39.4375 199.15625,39.4375 L157.15625,39.4375 Z" id="path692"></path>
            <path d="M298.15625,39.46875 L298.15625,71.40625 L302.0625,71.40625 L302.0625,53.8125 C302.1541,53.7886 302.36482,53.67529 302.6875,53.5 C303.01018,53.32472 303.4236,53.16396 303.9375,52.96875 C304.4514,52.77753 305.04886,52.61216 305.75,52.46875 C306.45911,52.32134 307.24583,52.25 308.0625,52.25 C309.656,52.25 310.70423,52.62543 311.25,53.40625 C311.79578,54.19105 312.0625,55.23927 312.0625,56.59375 L312.0625,71.40625 L315.96875,71.40625 L315.96875,55.375 C315.96875,53.02459 315.37528,51.29436 314.15625,50.21875 C312.94519,49.15509 311.1923,48.625 308.9375,48.625 C307.99733,48.625 307.1405,48.70034 306.34375,48.84375 C305.55098,48.99912 304.84756,49.16785 304.25,49.375 C303.64447,49.57818 303.16369,49.76222 302.78125,49.9375 C302.39881,50.11279 302.1541,50.2527 302.0625,50.3125 L302.0625,39.46875 L298.15625,39.46875 Z M517.1875,39.46875 L517.1875,49.375 C517.1277,49.3511 516.97097,49.29445 516.65625,49.21875 C516.34552,49.13907 515.96211,49.05635 515.5,48.96875 C515.04983,48.86916 514.53444,48.79045 513.96875,48.71875 C513.39111,48.65899 512.80436,48.625 512.21875,48.625 C508.86443,48.625 506.37599,49.58045 504.71875,51.46875 C503.06151,53.36899 502.21875,56.31955 502.21875,60.375 C502.21875,64.39859 503.02354,67.35896 504.625,69.1875 C506.22647,71.02401 508.50484,71.9375 511.46875,71.9375 C512.29338,71.9375 513.05683,71.8395 513.75,71.65625 C514.44318,71.47698 515.05595,71.28161 515.59375,71.0625 C516.11562,70.85136 516.54036,70.63333 516.875,70.40625 C517.20963,70.19511 517.439,70.0212 517.5625,69.9375 L517.90625,71.40625 L521.125,71.40625 L521.125,39.46875 L517.1875,39.46875 Z M377.875,40.71875 L377.875,45.15625 L382.25,45.15625 L382.25,40.71875 L377.875,40.71875 Z M527.25,40.71875 L527.25,45.15625 L531.59375,45.15625 L531.59375,40.71875 L527.25,40.71875 Z M264.71875,41.09375 C261.19313,41.09375 258.63272,41.8339 257.03125,43.34375 C255.42978,44.85757 254.625,46.94916 254.625,49.5625 C254.625,51.90893 255.19643,53.73928 256.34375,55.09375 C257.48709,56.44424 259.17597,57.38101 261.375,57.875 L264.75,58.65625 C265.60252,58.83154 266.33135,59.03824 266.96875,59.28125 C267.60217,59.50833 268.14022,59.82498 268.5625,60.1875 C268.98876,60.56198 269.29683,61.02071 269.5,61.5625 C269.70716,62.10827 269.8125,62.7731 269.8125,63.59375 C269.8125,64.52993 269.69246,65.31205 269.4375,65.9375 C269.19051,66.57888 268.80773,67.09427 268.25,67.46875 C267.68829,67.85517 266.95486,68.13385 266.0625,68.28125 C265.16616,68.43264 264.04136,68.5 262.71875,68.5 C262.09729,68.5 261.39909,68.4587 260.5625,68.375 C259.72591,68.28337 258.90183,68.17007 258.125,68.0625 C257.34418,67.96291 256.64873,67.86951 256.03125,67.75 C255.41775,67.6265 255.01965,67.52855 254.8125,67.46875 L254.15625,70.875 C254.21205,70.89891 254.48671,70.97025 254.96875,71.09375 C255.45476,71.21326 256.08958,71.32534 256.90625,71.46875 C257.73088,71.62412 258.70104,71.76744 259.8125,71.875 C260.93194,71.99455 262.14615,72.0625 263.46875,72.0625 C265.05827,72.0625 266.50583,71.87722 267.8125,71.5625 C269.11518,71.23583 270.24397,70.75169 271.15625,70.0625 C272.06454,69.3773 272.74805,68.47452 273.25,67.375 C273.75196,66.27151 274,64.92529 274,63.34375 C274,61.13675 273.46593,59.3358 272.40625,57.9375 C271.35056,56.54717 269.51622,55.54701 266.875,54.9375 L263.125,54.09375 C261.69085,53.76708 260.56206,53.27497 259.78125,52.59375 C259.0084,51.91651 258.625,50.79905 258.625,49.28125 C258.625,48.30921 258.77904,47.54303 259.09375,46.9375 C259.4005,46.33197 259.82923,45.86987 260.375,45.53125 C260.91679,45.2006 261.54824,44.96326 262.28125,44.84375 C263.01027,44.72026 263.80373,44.65625 264.65625,44.65625 C265.50878,44.65625 266.36622,44.68965 267.21875,44.78125 C268.07127,44.87288 268.84206,44.9709 269.53125,45.0625 C270.22044,45.17405 270.81851,45.2794 271.3125,45.375 C271.81445,45.48655 272.14182,45.56185 272.28125,45.59375 L272.875,42.28125 C272.69972,42.2215 272.3264,42.13147 271.8125,42 C271.29461,41.86456 270.6745,41.72522 269.9375,41.59375 C269.20848,41.46229 268.40431,41.35757 267.5,41.25 C266.58772,41.15841 265.65891,41.09375 264.71875,41.09375 Z M456.28125,41.75 L456.28125,71.40625 L460.375,71.40625 L460.375,45.1875 L465.5625,45.1875 C467.7934,45.1875 469.33896,45.56754 470.1875,46.3125 C471.03604,47.06941 471.46875,48.28637 471.46875,50.03125 C471.46875,51.08296 471.29267,51.93307 470.90625,52.5625 C470.52381,53.1999 469.99036,53.69998 469.28125,54.0625 C468.58409,54.42502 467.69937,54.69636 466.6875,54.84375 C465.66766,54.98319 464.54809,55.0919 463.28125,55.1875 L462.625,58.09375 L472.65625,71.40625 L477.71875,71.40625 L467.34375,57.78125 C468.34765,57.63385 469.32453,57.40846 470.3125,57.09375 C471.2925,56.79496 472.18396,56.35889 472.96875,55.78125 C473.76949,55.21157 474.41624,54.44016 474.90625,53.5 C475.38828,52.55983 475.625,51.37962 475.625,49.9375 C475.625,47.38392 474.92158,45.38759 473.53125,43.9375 C472.12897,42.47945 469.82855,41.75 466.59375,41.75 L456.28125,41.75 Z M363.59375,48.625 C360.39879,48.625 357.98443,49.56116 356.375,51.4375 C354.7576,53.29393 353.96875,56.22579 353.96875,60.28125 C353.96875,62.42849 354.17147,64.25273 354.59375,65.71875 C355.02001,67.19672 355.6435,68.39226 356.5,69.3125 C357.34854,70.24071 358.40871,70.89819 359.6875,71.3125 C360.97026,71.71884 362.48184,71.9375 364.21875,71.9375 C365.19078,71.9375 366.1049,71.86495 366.9375,71.78125 C367.77808,71.69361 368.5262,71.60358 369.1875,71.5 C369.8488,71.39643 370.37092,71.31435 370.78125,71.21875 C371.19556,71.11119 371.4776,71.02855 371.625,70.96875 L371.9375,67.5625 C371.8539,67.59836 371.57517,67.6703 371.125,67.75 C370.66687,67.84163 370.09818,67.92368 369.46875,68.03125 C368.84728,68.13084 368.17051,68.20555 367.4375,68.28125 C366.70051,68.35695 365.98239,68.40625 365.28125,68.40625 C364.12995,68.40625 363.12643,68.32357 362.25,68.15625 C361.36163,67.96901 360.59756,67.6343 360,67.15625 C359.40244,66.66625 358.9437,66.01276 358.625,65.15625 C358.29834,64.30772 358.0916,63.16361 358,61.78125 L373,61.78125 L373,59.375 C373,55.49084 372.19858,52.73903 370.625,51.09375 C369.05142,49.45244 366.70904,48.625 363.59375,48.625 Z M417.34375,48.625 C414.13285,48.625 411.75037,49.56116 410.125,51.4375 C408.51955,53.29393 407.6875,56.22579 407.6875,60.28125 C407.6875,62.42849 407.91351,64.25273 408.34375,65.71875 C408.76205,67.19672 409.3935,68.39226 410.25,69.3125 C411.09854,70.24071 412.15872,70.89819 413.4375,71.3125 C414.7123,71.71884 416.2398,71.9375 417.96875,71.9375 C418.94078,71.9375 419.81568,71.86495 420.65625,71.78125 C421.48886,71.69361 422.24495,71.60358 422.90625,71.5 C423.56755,71.39643 424.11694,71.31435 424.53125,71.21875 C424.94556,71.11119 425.20432,71.02855 425.34375,70.96875 L425.65625,67.5625 C425.57255,67.59836 425.29392,67.6703 424.84375,67.75 C424.39359,67.84163 423.84819,67.92368 423.21875,68.03125 C422.58932,68.13084 421.92848,68.20555 421.1875,68.28125 C420.4505,68.35695 419.73239,68.40625 419.03125,68.40625 C417.87995,68.40625 416.8412,68.32357 415.96875,68.15625 C415.0764,67.96901 414.35553,67.6343 413.75,67.15625 C413.15244,66.66625 412.67042,66.01276 412.34375,65.15625 C412.02505,64.30772 411.8337,63.16361 411.75,61.78125 L426.71875,61.78125 L426.71875,59.375 C426.71875,55.49084 425.9446,52.73903 424.375,51.09375 C422.80142,49.45244 420.45505,48.625 417.34375,48.625 Z M489.28125,48.625 C488.34109,48.625 487.41166,48.67768 486.53125,48.78125 C485.64686,48.88882 484.86138,49.01283 484.15625,49.15625 C483.45511,49.29966 482.88766,49.42705 482.4375,49.5625 C481.97937,49.70592 481.67745,49.7767 481.59375,49.8125 L481.375,53.0625 C481.49452,53.04258 481.78115,52.9666 482.1875,52.875 C482.59782,52.76346 483.08994,52.67006 483.6875,52.5625 C484.28904,52.44299 484.95847,52.3337 485.6875,52.25 C486.42848,52.16633 487.17262,52.09375 487.9375,52.09375 C489.0888,52.09375 490.00964,52.21503 490.71875,52.40625 C491.42786,52.58552 491.98061,52.86756 492.375,53.25 C492.77338,53.62447 493.0401,54.09516 493.1875,54.625 C493.33491,55.15085 493.40625,55.72901 493.40625,56.40625 L493.40625,58.125 C493.34255,58.125 493.15908,58.1223 492.8125,58.0625 C492.46193,57.99876 491.99461,57.91945 491.46875,57.84375 C490.93892,57.76805 490.35615,57.7273 489.71875,57.6875 C489.08932,57.6357 488.49249,57.59375 487.875,57.59375 C485.14614,57.59375 483.08916,58.1851 481.71875,59.3125 C480.35233,60.44388 479.6875,62.33089 479.6875,65 C479.6875,66.37838 479.86694,67.53779 480.28125,68.40625 C480.68759,69.29463 481.22902,69.97813 481.90625,70.5 C482.57552,71.02984 483.34631,71.42581 484.21875,71.625 C485.08322,71.82817 485.99734,71.9375 486.9375,71.9375 C487.90954,71.9375 488.77035,71.84685 489.53125,71.6875 C490.28816,71.52416 490.97352,71.32481 491.53125,71.09375 C492.08499,70.87863 492.55506,70.65661 492.9375,70.4375 C493.31994,70.22238 493.60198,70.05701 493.78125,69.9375 L494.125,71.40625 L497.25,71.40625 L497.25,55.65625 C497.25,53.13055 496.56587,51.34155 495.1875,50.25 C493.80514,49.16244 491.83085,48.625 489.28125,48.625 Z M546.65625,48.625 C545.09462,48.625 543.71168,48.82436 542.46875,49.21875 C541.21387,49.61314 540.14573,50.25194 539.28125,51.15625 C538.41678,52.07649 537.7547,53.27601 537.3125,54.75 C536.85437,56.23593 536.625,58.10551 536.625,60.3125 C536.625,62.48365 536.85437,64.29133 537.3125,65.78125 C537.7547,67.26321 538.41678,68.45874 539.28125,69.375 C540.14573,70.27931 541.21387,70.94538 542.46875,71.34375 C543.71168,71.73815 545.09462,71.9375 546.65625,71.9375 C548.21389,71.9375 549.61676,71.73815 550.84375,71.34375 C552.07473,70.94538 553.13951,70.27931 554,69.375 C554.86447,68.45874 555.51859,67.26321 555.96875,65.78125 C556.43087,64.29133 556.65625,62.48365 556.65625,60.3125 C556.65625,58.10551 556.43087,56.23593 555.96875,54.75 C555.51859,53.27601 554.86447,52.07649 554,51.15625 C553.13951,50.25194 552.07473,49.61314 550.84375,49.21875 C549.61676,48.82436 548.21389,48.625 546.65625,48.625 Z M440.90625,48.71875 C440.26088,48.71875 439.63678,48.78549 439.03125,48.96875 C438.43369,49.14005 437.85765,49.38598 437.34375,49.625 C436.83781,49.88395 436.40572,50.13138 436.03125,50.40625 C435.64881,50.6891 435.33614,50.91784 435.125,51.125 L434.90625,49.15625 L431.6875,49.15625 L431.6875,71.40625 L435.625,71.40625 L435.625,53.9375 C435.6808,53.87774 435.86146,53.75372 436.15625,53.5625 C436.44707,53.37128 436.8271,53.18724 437.28125,53 C437.73938,52.80878 438.25415,52.62411 438.84375,52.46875 C439.43733,52.30935 440.04151,52.25 440.71875,52.25 C441.45574,52.25 442.04249,52.26744 442.46875,52.375 C442.89102,52.47858 443.19635,52.5613 443.34375,52.625 L444.03125,49.15625 C443.88385,49.08852 443.5764,48.99451 443.0625,48.875 C442.5486,48.75551 441.81454,48.71875 440.90625,48.71875 Z M288.25,48.8125 C286.4852,48.8125 284.94698,48.98795 283.65625,49.40625 C282.36551,49.81657 281.30932,50.50131 280.46875,51.4375 C279.63216,52.35376 279.00408,53.54195 278.59375,55 C278.17944,56.45407 277.96875,58.20174 277.96875,60.28125 C277.96875,62.37272 278.17944,64.14366 278.59375,65.59375 C279.00408,67.05578 279.63216,68.25194 280.46875,69.15625 C281.30932,70.0765 282.32692,70.71467 283.59375,71.125 C284.8566,71.53533 286.35745,71.75 288.0625,71.75 C289.88307,71.75 291.20998,71.652 292.0625,71.46875 C292.91502,71.30143 293.44511,71.1848 293.65625,71.125 L294,67.75 C293.9402,67.75 293.74424,67.77205 293.4375,67.84375 C293.13473,67.91945 292.78197,67.98345 292.34375,68.03125 C291.90156,68.09897 291.40484,68.15505 290.875,68.21875 C290.34517,68.27855 289.84109,68.3125 289.375,68.3125 C288.14003,68.3125 287.04923,68.2145 286.125,68.03125 C285.19679,67.85995 284.46124,67.48726 283.84375,66.9375 C283.22627,66.37579 282.75956,65.58694 282.46875,64.53125 C282.16997,63.47556 282.03125,62.04605 282.03125,60.28125 C282.03125,58.5284 282.162,57.1182 282.46875,56.0625 C282.77948,55.00681 283.20423,54.19866 283.75,53.625 C284.29577,53.04736 284.95387,52.67927 285.71875,52.5 C286.47964,52.31679 287.33772,52.25 288.25,52.25 C288.89138,52.25 289.49619,52.27205 290.09375,52.34375 C290.69529,52.41944 291.23335,52.51744 291.6875,52.625 C292.14563,52.72858 292.5177,52.81065 292.8125,52.90625 C293.10729,53.01381 293.2913,53.0931 293.375,53.125 L294.21875,49.90625 C294.13505,49.88235 293.93175,49.79905 293.625,49.6875 C293.31826,49.56799 292.92016,49.43998 292.40625,49.3125 C291.88837,49.17705 291.26763,49.06835 290.5625,48.96875 C289.86136,48.86119 289.09854,48.8125 288.25,48.8125 Z M319.28125,49.15625 L326.25,71.40625 L330.5625,71.40625 L335.375,54.375 L340.0625,71.40625 L344.40625,71.40625 L351.3125,49.15625 L347.25,49.15625 L342.375,67.3125 L337.40625,49.15625 L333.46875,49.15625 L328.5,66.9375 L323.59375,49.15625 L319.28125,49.15625 Z M378.09375,49.15625 L378.09375,71.40625 L382,71.40625 L382,49.15625 L378.09375,49.15625 Z M387.09375,49.15625 L387.09375,52.3125 L400.15625,52.3125 L386.625,68.40625 L386.625,71.40625 L404.78125,71.40625 L405.28125,68.21875 L391.21875,68.21875 L404.6875,52.15625 L404.34375,49.15625 L387.09375,49.15625 Z M527.46875,49.15625 L527.46875,71.40625 L531.375,71.40625 L531.375,49.15625 L527.46875,49.15625 Z M363.59375,51.84375 C364.56579,51.84375 365.38128,51.94113 366.0625,52.15625 C366.73177,52.39129 367.30781,52.75141 367.75,53.28125 C368.18822,53.8071 368.51558,54.51787 368.71875,55.40625 C368.91794,56.28267 369.03125,57.37348 369.03125,58.65625 L358,58.65625 C358.0319,57.39739 358.17121,56.32526 358.40625,55.46875 C358.64528,54.60029 358.96405,53.91679 359.40625,53.375 C359.84446,52.82524 360.43182,52.43449 361.125,52.1875 C361.8102,51.95644 362.62968,51.84375 363.59375,51.84375 Z M417.34375,51.84375 C418.30781,51.84375 419.13526,51.94113 419.8125,52.15625 C420.48973,52.39129 421.02656,52.75141 421.46875,53.28125 C421.90697,53.8071 422.23034,54.51787 422.4375,55.40625 C422.64067,56.28267 422.75,57.37348 422.75,58.65625 L411.75,58.65625 C411.7739,57.39739 411.91324,56.32526 412.15625,55.46875 C412.38731,54.60029 412.71405,53.91679 413.15625,53.375 C413.59446,52.82524 414.15854,52.43449 414.84375,52.1875 C415.52895,51.95644 416.37171,51.84375 417.34375,51.84375 Z M546.65625,51.96875 C547.67609,51.96875 548.59082,52.09676 549.34375,52.34375 C550.11659,52.59871 550.73672,53.04612 551.21875,53.6875 C551.70079,54.33287 552.06949,55.18634 552.3125,56.25 C552.54356,57.32959 552.65625,58.69908 552.65625,60.3125 C552.65625,61.92592 552.54356,63.26415 552.3125,64.34375 C552.06949,65.40741 551.70079,66.24557 551.21875,66.875 C550.73672,67.50443 550.11659,67.95184 549.34375,68.21875 C548.59082,68.48566 547.67609,68.625 546.65625,68.625 C545.59259,68.625 544.72167,68.48566 543.96875,68.21875 C543.22777,67.95184 542.60703,67.50443 542.125,66.875 C541.635,66.24557 541.25832,65.40741 541.03125,64.34375 C540.81612,63.26415 540.71875,61.92592 540.71875,60.3125 C540.71875,58.69908 540.81615,57.32959 541.03125,56.25 C541.25832,55.18634 541.635,54.33287 542.125,53.6875 C542.60703,53.04612 543.22777,52.59871 543.96875,52.34375 C544.72167,52.09676 545.59259,51.96875 546.65625,51.96875 Z M512.34375,52.0625 C513.61457,52.0625 514.71609,52.12588 515.65625,52.28125 C516.6004,52.45255 517.0959,52.56985 517.1875,52.59375 L517.1875,67.21875 C517.0959,67.27851 516.94707,67.36455 516.65625,67.5 C516.37739,67.62748 516.02001,67.75886 515.59375,67.90625 C515.15155,68.05365 514.63217,68.19697 514.0625,68.3125 C513.48884,68.43603 512.85614,68.5 512.21875,68.5 C511.18297,68.5 510.32676,68.37199 509.59375,68.125 C508.85277,67.87402 508.23203,67.42998 507.75,66.8125 C507.26796,66.20298 506.91856,65.38749 506.6875,64.34375 C506.45246,63.30001 506.3125,61.96053 506.3125,60.375 C506.3125,58.7576 506.45246,57.43468 506.6875,56.375 C506.91856,55.31532 507.26796,54.45787 507.75,53.8125 C508.23203,53.17112 508.85215,52.73964 509.625,52.46875 C510.3859,52.20184 511.28806,52.0625 512.34375,52.0625 Z M488.40625,60.65625 C489.01975,60.65625 489.61384,60.67495 490.1875,60.71875 C490.75717,60.77058 491.26062,60.79195 491.71875,60.84375 C492.16891,60.87963 492.56427,60.92095 492.875,60.96875 C493.1698,61.01255 493.34255,61.0625 493.40625,61.0625 L493.40625,67.46875 C493.31865,67.52452 493.11925,67.63049 492.8125,67.75 C492.50176,67.8735 492.10703,68.00486 491.625,68.15625 C491.135,68.29568 490.62483,68.4197 490.03125,68.53125 C489.44962,68.63083 488.83624,68.65625 488.21875,68.65625 C487.50965,68.65625 486.87085,68.61495 486.28125,68.53125 C485.68767,68.43166 485.1683,68.25894 484.75,68 C484.32374,67.73309 483.98504,67.33774 483.75,66.84375 C483.51496,66.34578 483.40625,65.7223 483.40625,64.9375 C483.40625,63.23245 483.80098,62.07366 484.59375,61.5 C485.38651,60.92235 486.67332,60.65625 488.40625,60.65625 Z M316.59375,78.5625 L316.59375,88.5 C316.53005,88.46813 316.34596,88.3842 316.03125,88.3125 C315.73246,88.2368 315.37235,88.18935 314.90625,88.09375 C314.46007,88.01407 313.95265,87.91145 313.375,87.84375 C312.80134,87.77199 312.21857,87.75 311.625,87.75 C308.27865,87.75 305.75497,88.67022 304.09375,90.5625 C302.44049,92.47072 301.625,95.44056 301.625,99.5 C301.625,103.51562 302.43377,106.44076 304.03125,108.28125 C305.63272,110.11776 307.91109,111.03125 310.875,111.03125 C311.69964,111.03125 312.46308,110.95255 313.15625,110.78125 C313.84544,110.60596 314.43095,110.40661 314.96875,110.1875 C315.49859,109.95644 315.93865,109.71911 316.28125,109.5 C316.61589,109.28488 316.82197,109.1462 316.9375,109.0625 L317.3125,110.5 L320.53125,110.5 L320.53125,78.5625 L316.59375,78.5625 Z M462.5,78.5625 L462.5,110.5 L466.40625,110.5 L466.40625,92.9375 C466.50185,92.90563 466.69661,92.80028 467.03125,92.625 C467.34596,92.45369 467.76735,92.25771 468.28125,92.0625 C468.80312,91.87527 469.38464,91.70592 470.09375,91.5625 C470.80286,91.41511 471.58958,91.34375 472.40625,91.34375 C474.00373,91.34375 475.04798,91.73114 475.59375,92.5 C476.13953,93.28878 476.40625,94.38021 476.40625,95.71875 L476.40625,110.5 L480.34375,110.5 L480.34375,94.46875 C480.34375,92.1263 479.71504,90.42733 478.5,89.34375 C477.28097,88.27611 475.53605,87.75 473.28125,87.75 C472.34108,87.75 471.48425,87.82135 470.6875,87.96875 C469.89473,88.11615 469.19131,88.29285 468.59375,88.5 C467.98822,88.69919 467.51541,88.89519 467.125,89.0625 C466.74256,89.24974 466.50185,89.35045 466.40625,89.40625 L466.40625,78.5625 L462.5,78.5625 Z M336.03125,80.875 L336.03125,110.5 L340.125,110.5 L340.125,96.84375 L352.15625,96.84375 L352.15625,93.28125 L340.125,93.28125 L340.125,84.46875 L353.34375,84.46875 L353.34375,80.875 L336.03125,80.875 Z M289.59375,87.75 C288.6496,87.75 287.77409,87.84003 286.9375,88.03125 C286.09693,88.22247 285.34482,88.42121 284.6875,88.65625 C284.0262,88.89926 283.46946,89.12403 283.03125,89.375 C282.58905,89.61801 282.30028,89.80665 282.125,89.90625 L281.90625,88.28125 L278.6875,88.28125 L278.6875,110.5 L282.59375,110.5 L282.59375,92.9375 C282.67745,92.90563 282.89209,92.80028 283.21875,92.625 C283.54144,92.45369 283.95485,92.25771 284.46875,92.0625 C284.98266,91.87527 285.6034,91.70592 286.3125,91.5625 C287.01364,91.41511 287.76911,91.34375 288.59375,91.34375 C290.17928,91.34375 291.23547,91.73114 291.78125,92.5 C292.31905,93.28878 292.59375,94.38021 292.59375,95.71875 L292.59375,110.5 L296.53125,110.5 L296.53125,94.46875 C296.53125,92.1263 295.91786,90.42733 294.71875,89.34375 C293.51167,88.27611 291.79277,87.75 289.59375,87.75 Z M365.625,87.75 C362.43003,87.75 360.02365,88.66685 358.40625,90.53125 C356.79682,92.39962 355.96875,95.35876 355.96875,99.40625 C355.96875,101.55349 356.20273,103.35445 356.625,104.8125 C357.05127,106.28649 357.68272,107.47804 358.53125,108.40625 C359.38776,109.33048 360.43997,110.02717 361.71875,110.4375 C362.99355,110.84782 364.52105,111.03125 366.25,111.03125 C367.21407,111.03125 368.09693,110.98595 368.9375,110.90625 C369.77808,110.81065 370.5262,110.7246 371.1875,110.625 C371.8488,110.5254 372.39819,110.41608 372.8125,110.3125 C373.21884,110.2129 373.50885,110.1143 373.65625,110.0625 L373.9375,106.6875 C373.8618,106.7114 373.58314,106.7481 373.125,106.84375 C372.67484,106.93535 372.12944,107.0254 371.5,107.125 C370.86261,107.22857 370.20973,107.33455 369.46875,107.40625 C368.73972,107.47795 368.02161,107.49995 367.3125,107.49995 C366.16917,107.49995 365.12244,107.41725 364.25,107.24995 C363.36561,107.06271 362.62881,106.75527 362.03125,106.2812 C361.42572,105.78722 360.98292,105.0945 360.65625,104.24995 C360.32959,103.38547 360.10695,102.28458 360.03125,100.9062 L375,100.9062 L375,98.4687 C375,94.59251 374.22585,91.86399 372.65625,90.2187 C371.08267,88.57347 368.74029,87.75 365.625,87.75 Z M406.65625,87.75 C405.71608,87.75 404.81729,87.84003 403.96875,88.03125 C403.14411,88.22247 402.38006,88.42121 401.71875,88.65625 C401.05745,88.89926 400.5047,89.12403 400.0625,89.375 C399.63226,89.61801 399.32755,89.80665 399.15625,89.90625 L398.90625,88.28125 L395.71875,88.28125 L395.71875,110.5 L399.625,110.5 L399.625,92.9375 C399.7126,92.90563 399.92333,92.80028 400.25,92.625 C400.57268,92.45369 400.98609,92.25771 401.5,92.0625 C402.0139,91.87527 402.64261,91.70592 403.34375,91.5625 C404.04489,91.41511 404.80833,91.34375 405.625,91.34375 C407.21451,91.34375 408.26673,91.73114 408.8125,92.5 C409.35827,93.28878 409.625,94.38021 409.625,95.71875 L409.625,110.5 L413.5625,110.5 L413.5625,94.46875 C413.5625,92.1263 412.94911,90.42733 411.75,89.34375 C410.53894,88.27611 408.85926,87.75 406.65625,87.75 Z M426.03125,87.75 C423.59197,87.881533 421.79621,88.482029 420.625,89.53125 C419.28646,90.73833 418.625,92.30991 418.625,94.25 C418.625,96.09846 419.09782,97.55001 420.09375,98.59375 C421.06579,99.63351 422.3826,100.30293 424,100.59375 L426.59375,101.125 C428.20318,101.41581 429.32338,101.8032 429.96875,102.28125 C430.61412,102.74735 430.96875,103.53682 430.96875,104.65625 C430.96875,105.943 430.52807,106.77381 429.6875,107.15625 C428.8549,107.53869 427.46398,107.75 425.5,107.75 C424.82276,107.75 424.13926,107.7081 423.40625,107.6563 C422.69714,107.5846 421.98912,107.51325 421.34375,107.43755 C420.69839,107.36585 420.16555,107.30985 419.6875,107.25005 C419.2214,107.19035 418.8974,107.15295 418.75,107.12505 L418.28125,110.18755 C418.39678,110.22735 418.66351,110.28745 419.09375,110.37505 C419.53595,110.45875 420.09666,110.53679 420.75,110.6563 C421.4113,110.7479 422.18271,110.86185 423.03125,110.93755 C423.88775,111.02515 424.81657,111.03125 425.8125,111.03125 C428.59714,111.03125 430.77353,110.51648 432.375,109.46875 C433.97646,108.40111 434.78125,106.6715 434.78125,104.28125 C434.78125,102.53238 434.34853,101.12616 433.5,100.0625 C432.64349,98.98689 431.10988,98.23079 428.875,97.8125 L426.09375,97.25 C425.39261,97.13048 424.79055,97.01904 424.3125,96.84375 C423.8225,96.68839 423.46238,96.46972 423.1875,96.21875 C422.90067,95.96777 422.69396,95.67502 422.5625,95.3125 C422.43099,94.95795 422.375,94.5332 422.375,94.03125 C422.375,93.41775 422.4877,92.91032 422.71875,92.5 C422.94583,92.10959 423.29249,91.80489 423.71875,91.59375 C424.149,91.37066 424.62978,91.23995 425.1875,91.15625 C425.74124,91.08849 426.35401,91.03125 427.03125,91.03125 C427.61686,91.03125 428.23698,91.0772 428.90625,91.125 C429.59145,91.18077 430.23088,91.2448 430.8125,91.3125 C431.40608,91.38819 431.92545,91.45155 432.34375,91.53125 C432.77399,91.599 433.04011,91.68295 433.1875,91.71875 L433.78125,88.625 C433.65776,88.59711 433.38306,88.50585 432.96875,88.40625 C432.55045,88.30267 432.0703,88.20131 431.46875,88.09375 C430.86322,87.99017 430.19043,87.91945 429.4375,87.84375 C428.68856,87.77208 427.91776,87.75 427.125,87.75 C426.75053,87.75 426.37972,87.73121 426.03125,87.75 Z M448.125,87.75 C444.92206,87.75 442.52365,88.66685 440.90625,90.53125 C439.28885,92.39962 438.46875,95.35876 438.46875,99.40625 C438.46875,101.55349 438.70273,103.35445 439.125,104.8125 C439.55127,106.28649 440.18271,107.47804 441.03125,108.40625 C441.87979,109.33048 442.93997,110.02717 444.21875,110.4375 C445.50152,110.84782 447.01308,111.03125 448.75,111.03125 C449.71406,111.03125 450.62818,110.98595 451.46875,110.90625 C452.30932,110.81065 453.0262,110.7246 453.6875,110.625 C454.3488,110.5254 454.89819,110.41608 455.3125,110.3125 C455.72681,110.2129 456.01682,110.1143 456.15625,110.0625 L456.4375,106.6875 C456.3538,106.7114 456.10642,106.7481 455.65625,106.84375 C455.19812,106.93535 454.6374,107.0254 454,107.125 C453.37057,107.22857 452.70973,107.33455 451.96875,107.40625 C451.23972,107.47795 450.51364,107.49995 449.8125,107.49995 C448.6612,107.49995 447.63041,107.41725 446.75,107.24995 C445.87357,107.06271 445.12881,106.75527 444.53125,106.2812 C443.9297,105.78722 443.48292,105.0945 443.15625,104.24995 C442.83755,103.38547 442.61495,102.28458 442.53125,100.9062 L457.5,100.9062 L457.5,98.4687 C457.5,94.59251 456.72585,91.86399 455.15625,90.2187 C453.58267,88.57347 451.23232,87.75 448.125,87.75 Z M495.09375,87.75 C491.89082,87.75 489.4924,88.66685 487.875,90.53125 C486.2576,92.39962 485.4375,95.35876 485.4375,99.40625 C485.4375,101.55349 485.63225,103.35445 486.0625,104.8125 C486.48876,106.28649 487.1435,107.47804 488,108.40625 C488.84854,109.33048 489.90075,110.02717 491.1875,110.4375 C492.45434,110.84782 493.97387,111.03125 495.71875,111.03125 C496.68282,111.03125 497.57365,110.98595 498.40625,110.90625 C499.23886,110.81065 499.99495,110.7246 500.65625,110.625 C501.31756,110.5254 501.87092,110.41608 502.28125,110.3125 C502.69556,110.2129 502.94635,110.1143 503.09375,110.0625 L503.40625,106.6875 C503.31465,106.7114 503.04392,106.7481 502.59375,106.84375 C502.13562,106.93535 501.59818,107.0254 500.96875,107.125 C500.33932,107.22857 499.63926,107.33455 498.90625,107.40625 C498.16926,107.47795 497.4591,107.49995 496.75,107.49995 C495.60666,107.49995 494.59518,107.41725 493.71875,107.24995 C492.83835,107.06271 492.10553,106.75527 491.5,106.2812 C490.89447,105.78722 490.4437,105.0945 490.125,104.24995 C489.79834,103.38547 489.5916,102.28458 489.5,100.9062 L504.46875,100.9062 L504.46875,98.4687 C504.46875,94.59251 503.68265,91.86399 502.125,90.2187 C500.54345,88.57347 498.20107,87.75 495.09375,87.75 Z M520.375,87.75 C519.43484,87.75 518.55932,87.84003 517.71875,88.03125 C516.88615,88.22247 516.13005,88.42121 515.46875,88.65625 C514.80744,88.89926 514.24673,89.12403 513.8125,89.375 C513.36633,89.61801 513.05427,89.80665 512.875,89.90625 L512.65625,88.28125 L509.4375,88.28125 L509.4375,110.5 L513.375,110.5 L513.375,92.9375 C513.4706,92.90563 513.66935,92.80028 514,92.625 C514.3187,92.45369 514.7361,92.25771 515.25,92.0625 C515.7639,91.87527 516.36136,91.70592 517.0625,91.5625 C517.77161,91.41511 518.55036,91.34375 519.375,91.34375 C520.95655,91.34375 522.01673,91.73114 522.5625,92.5 C523.10828,93.28878 523.375,94.38021 523.375,95.71875 L523.375,110.5 L527.28125,110.5 L527.28125,94.46875 C527.28125,92.1263 526.66786,90.42733 525.46875,89.34375 C524.26566,88.27611 522.57801,87.75 520.375,87.75 Z M389.1875,87.8125 C388.53018,87.8125 387.91006,87.92244 387.3125,88.09375 C386.71095,88.28098 386.17016,88.45981 385.65625,88.71875 C385.14235,88.96575 384.69494,89.24044 384.3125,89.53125 C383.93006,89.80613 383.64067,90.03488 383.4375,90.25 L383.21875,88.28125 L379.96875,88.28125 L379.96875,110.5 L383.90625,110.5 L383.90625,93.0625 C383.96995,93.00673 384.1427,92.87872 384.4375,92.6875 C384.7323,92.49229 385.11234,92.31622 385.5625,92.125 C386.02462,91.93777 386.54337,91.7531 387.125,91.59375 C387.71459,91.43834 388.35402,91.34375 389.03125,91.34375 C389.76028,91.34375 390.33171,91.4004 390.75,91.5 C391.18025,91.61154 391.45432,91.6863 391.59375,91.75 L392.3125,88.28125 C392.16511,88.21353 391.85765,88.11951 391.34375,88 C390.82187,87.87646 390.0958,87.8125 389.1875,87.8125 Z M254.625,88.28125 L254.625,104.125 C254.625,106.56306 255.23043,108.31869 256.4375,109.40625 C257.63661,110.49381 259.32824,111.03125 261.53125,111.03125 C262.49931,111.03125 263.4174,110.94125 264.25,110.75 C265.09057,110.5548 265.84268,110.34472 266.5,110.09375 C267.16528,109.85074 267.70272,109.61402 268.125,109.375 C268.55126,109.13597 268.82932,108.9626 268.96875,108.875 L269.25,110.5 L272.46875,110.5 L272.46875,88.28125 L268.5625,88.28125 L268.5625,105.84375 C268.4709,105.90745 268.2562,105.9969 267.9375,106.15625 C267.60685,106.32755 267.2014,106.4923 266.6875,106.6875 C266.17359,106.87872 265.54887,107.07533 264.84375,107.21875 C264.14261,107.36615 263.38315,107.4375 262.5625,107.4375 C260.94908,107.4375 259.87757,107.06145 259.34375,106.3125 C258.8179,105.55958 258.53125,104.47275 258.53125,103.0625 L258.53125,88.28125 L254.625,88.28125 Z M365.625,90.96875 C366.58907,90.96875 367.42448,91.06215 368.09375,91.28125 C368.77099,91.50036 369.34702,91.8804 369.78125,92.40625 C370.22743,92.93211 370.54683,93.65084 370.75,94.53125 C370.94919,95.41564 371.03125,96.49051 371.03125,97.78125 L360.03125,97.78125 C360.05515,96.52238 360.20246,95.45822 360.4375,94.59375 C360.66059,93.72529 360.9953,93.00656 361.4375,92.46875 C361.88368,91.919 362.43182,91.55153 363.125,91.3125 C363.8102,91.08543 364.66093,90.96875 365.625,90.96875 Z M448.125,90.96875 C449.08906,90.96875 449.91651,91.06215 450.59375,91.28125 C451.27099,91.50036 451.85499,91.8804 452.28125,92.40625 C452.72743,92.93211 453.05081,93.65084 453.25,94.53125 C453.45317,95.41564 453.5625,96.49051 453.5625,97.78125 L442.53125,97.78125 C442.55515,96.52238 442.70246,95.45822 442.9375,94.59375 C443.16856,93.72529 443.50327,93.00656 443.9375,92.46875 C444.38368,91.919 444.93182,91.55153 445.625,91.3125 C446.31817,91.08543 447.15296,90.96875 448.125,90.96875 Z M495.09375,90.96875 C496.05782,90.96875 496.88925,91.06215 497.5625,91.28125 C498.24771,91.50036 498.78452,91.8804 499.21875,92.40625 C499.66493,92.93211 499.98433,93.65084 500.1875,94.53125 C500.38669,95.41564 500.5,96.49051 500.5,97.78125 L489.5,97.78125 C489.5319,96.52238 489.63996,95.45822 489.875,94.59375 C490.11403,93.72529 490.46803,93.00656 490.90625,92.46875 C491.34844,91.919 491.89261,91.55153 492.59375,91.3125 C493.27895,91.08543 494.11375,90.96875 495.09375,90.96875 Z M311,91.1875 C311.24693,91.17144 311.48408,91.1875 311.75,91.1875 C313.00886,91.1875 314.13031,91.24292 315.0625,91.40625 C316.01462,91.5656 316.51005,91.6556 316.59375,91.6875 L316.59375,106.3125 C316.51005,106.3802 316.31808,106.49354 316.03125,106.625 C315.75637,106.75248 315.40298,106.88783 314.96875,107.03125 C314.52655,107.17865 314.01514,107.32197 313.4375,107.4375 C312.86782,107.56098 312.27036,107.59375 311.625,107.59375 C310.60516,107.59375 309.70972,107.46574 308.96875,107.21875 C308.23574,106.96777 307.64625,106.551 307.15625,105.9375 C306.67421,105.31603 306.29356,104.48124 306.0625,103.4375 C305.81949,102.39774 305.71875,101.08155 305.71875,99.5 C305.71875,97.8826 305.81949,96.5557 306.0625,95.5 C306.29356,94.44431 306.67421,93.58287 307.15625,92.9375 C307.64625,92.29612 308.26238,91.8334 309.03125,91.5625 C309.59893,91.36531 310.25921,91.235678 311,91.1875 Z" id="path704"></path>
        </g>
    </g>
</svg>